<?xml version="1.0" standalone="no"?>
<!DOCTYPE svg PUBLIC "-//W3C//DTD SVG 20010904//EN"
 "http://www.w3.org/TR/2001/REC-SVG-20010904/DTD/svg10.dtd">
<svg version="1.0" xmlns="http://www.w3.org/2000/svg"
 width="1000.000000pt" height="1000.000000pt" viewBox="0 0 1000.000000 1000.000000"
 preserveAspectRatio="xMidYMid meet">

<g transform="translate(0.000000,1000.000000) scale(0.100000,-0.100000)"
fill="#000000" stroke="none">
<path d="M2742 8120 c-214 -300 -273 -673 -176 -1110 127 -569 449 -988 953
-1239 64 -32 149 -71 189 -86 57 -22 71 -32 66 -44 -240 -579 -301 -1237 -172
-1866 138 -674 477 -1323 943 -1804 143 -147 257 -241 462 -379 l153 -103
-153 308 c-215 432 -312 677 -433 1084 -35 121 -78 279 -95 351 -63 272 -109
614 -109 807 l0 99 88 47 c326 174 662 259 946 239 247 -17 671 -121 840 -206
l59 -30 -6 109 c-9 168 -58 318 -147 448 -50 72 -173 179 -258 223 -237 123
-591 146 -1032 66 -115 -21 -367 -82 -415 -100 -11 -5 -15 1 -15 23 0 70 111
596 130 616 4 5 82 13 174 18 190 11 336 29 756 93 439 67 563 79 815 79 395
0 593 -48 983 -238 l192 -94 -77 112 c-128 187 -208 289 -275 354 -164 157
-416 268 -726 320 -147 25 -574 24 -922 -1 -419 -31 -1036 -22 -1230 18 -374
77 -628 204 -851 426 -157 157 -247 285 -364 520 -144 288 -220 573 -234 875
l-6 140 -53 -75z"/>
<path d="M5040 6998 c-124 -63 -179 -264 -110 -402 35 -70 118 -152 185 -182
92 -43 198 -31 252 27 76 83 81 264 12 401 -76 152 -218 217 -339 156z"/>
</g>
</svg>
